# xmcd
#
# Track frame offsets: 
#        150
#        7444
#        14930
#        28469
#        40277
#        50446
#        63645
#        68688
#        85992
#        99207
#        112097
#        125221
#        134556
#        152329
#
# Disc length: 2160 seconds
#
# Revision: 0
# Processed by: cddbd v1.5.2PL0 Copyright (c) Steve Scherf et al.
# Submitted via: ExactAudioCopy v0.95b4
#
DISCID=d2086e0e
DTITLE=The Murray Family Band - Gospel Tradition
DYEAR=1900
DGENRE=Gospel
TTITLE0=Down In The Valley To Pray
TTITLE1=Good News Chariots Coming
TTITLE2=Traveling The Highway Home
TTITLE3=To Canaan's Land
TTITLE4=Amazing Grace
TTITLE5=I'll Fly Away
TTITLE6=Zacchaeus
TTITLE7=Will The Circle Be Unbroken
TTITLE8=Glory Glory Glory
TTITLE9=This Little Light Of Mine
TTITLE10=Great High Mountain
TTITLE11=I Am A Pilgrim
TTITLE12=Wayfaring Stranger
TTITLE13=When My Time Comes To Go
EXTD=
EXTT0=
EXTT1=
EXTT2=
EXTT3=
EXTT4=
EXTT5=
EXTT6=
EXTT7=
EXTT8=
EXTT9=
EXTT10=
EXTT11=
EXTT12=
EXTT13=
PLAYORDER=
